# Blender v3.1.2 OBJ File: 'ring.blend'
# www.blender.org
mtllib o_ring.mtl
o Cylinder_Cylinder.001
v -0.500447 0.059217 0.495322
v -0.497895 0.339159 0.492887
v -0.497677 0.058593 0.426454
v -0.495125 0.338535 0.424019
v -0.431525 0.058594 0.495843
v -0.428973 0.338536 0.493408
vt 1.000000 1.000000
vt 0.666667 0.500000
vt 1.000000 0.500000
vt 0.666667 1.000000
vt 0.333333 0.500000
vt 0.457846 0.130000
vt 0.250000 0.490000
vt 0.042154 0.130000
vt 0.333333 1.000000
vt -0.000000 0.500000
vt 0.750000 0.490000
vt 0.957846 0.130000
vt 0.542154 0.130000
vt -0.000000 1.000000
vn -0.9992 0.0088 -0.0403
vn 0.7237 -0.0126 -0.6900
vn 0.0091 0.9999 -0.0087
vn -0.0075 0.0088 0.9999
vn -0.0091 -0.9999 0.0087
usemtl None
s off
f 2/1/1 3/2/1 1/3/1
f 4/4/2 5/5/2 3/2/2
f 4/6/3 2/7/3 6/8/3
f 6/9/4 1/10/4 5/5/4
f 1/11/5 3/12/5 5/13/5
f 2/1/1 4/4/1 3/2/1
f 4/4/2 6/9/2 5/5/2
f 6/9/4 2/14/4 1/10/4
o Cube_Cube.003
v -0.500000 -0.064580 0.500000
v -0.500000 0.064580 0.500000
v -0.500000 -0.064580 -0.500000
v -0.500000 0.064580 -0.500000
v 0.500000 -0.064580 0.500000
v 0.500000 0.064580 0.500000
v 0.500000 -0.064580 -0.500000
v 0.500000 0.064580 -0.500000
vt 0.625000 0.000000
vt 0.375000 0.250000
vt 0.375000 0.000000
vt 0.625000 0.250000
vt 0.375000 0.500000
vt 0.625000 0.500000
vt 0.375000 0.750000
vt 0.625000 0.750000
vt 0.375000 1.000000
vt 0.125000 0.750000
vt 0.125000 0.500000
vt 0.875000 0.500000
vt 0.625000 1.000000
vt 0.875000 0.750000
vn -1.0000 0.0000 0.0000
vn 0.0000 0.0000 -1.0000
vn 1.0000 0.0000 0.0000
vn 0.0000 0.0000 1.0000
vn 0.0000 -1.0000 0.0000
vn 0.0000 1.0000 0.0000
usemtl None
s off
f 8/15/6 9/16/6 7/17/6
f 10/18/7 13/19/7 9/16/7
f 14/20/8 11/21/8 13/19/8
f 12/22/9 7/23/9 11/21/9
f 13/19/10 7/24/10 9/25/10
f 10/26/11 12/22/11 14/20/11
f 8/15/6 10/18/6 9/16/6
f 10/18/7 14/20/7 13/19/7
f 14/20/8 12/22/8 11/21/8
f 12/22/9 8/27/9 7/23/9
f 13/19/10 11/21/10 7/24/10
f 10/26/11 8/28/11 12/22/11
o Cylinder.001_Cylinder.002
v -0.498966 0.065899 -0.498121
v -0.496554 0.345841 -0.495547
v -0.430126 0.065275 -0.494711
v -0.427715 0.345217 -0.492136
v -0.500128 0.065275 -0.429207
v -0.497717 0.345217 -0.426633
vt 1.000000 1.000000
vt 0.666667 0.500000
vt 1.000000 0.500000
vt 0.666667 1.000000
vt 0.333333 0.500000
vt 0.457846 0.130000
vt 0.250000 0.490000
vt 0.042154 0.130000
vt 0.333333 1.000000
vt -0.000000 0.500000
vt 0.750000 0.490000
vt 0.957846 0.130000
vt 0.542154 0.130000
vt -0.000000 1.000000
vn 0.0496 0.0088 -0.9987
vn 0.6832 -0.0126 0.7301
vn 0.0086 0.9999 0.0092
vn -0.9998 0.0088 -0.0168
vn -0.0086 -0.9999 -0.0092
usemtl None
s off
f 16/29/12 17/30/12 15/31/12
f 18/32/13 19/33/13 17/30/13
f 18/34/14 16/35/14 20/36/14
f 20/37/15 15/38/15 19/33/15
f 15/39/16 17/40/16 19/41/16
f 16/29/12 18/32/12 17/30/12
f 18/32/13 20/37/13 19/33/13
f 20/37/15 16/42/15 15/38/15
o Cylinder.002_Cylinder.003
v 0.498005 0.061846 -0.494031
v 0.495467 0.341788 -0.491581
v 0.495633 0.061222 -0.425148
v 0.493095 0.341164 -0.422698
v 0.429081 0.061223 -0.494153
v 0.426543 0.341165 -0.491703
vt 1.000000 1.000000
vt 0.666667 0.500000
vt 1.000000 0.500000
vt 0.666667 1.000000
vt 0.333333 0.500000
vt 0.457846 0.130000
vt 0.250000 0.490000
vt 0.042154 0.130000
vt 0.333333 1.000000
vt -0.000000 0.500000
vt 0.750000 0.490000
vt 0.957846 0.130000
vt 0.542154 0.130000
vt -0.000000 1.000000
vn 0.9994 0.0088 0.0345
vn -0.7197 -0.0126 0.6941
vn -0.0091 0.9999 0.0088
vn 0.0017 0.0088 -1.0000
vn 0.0091 -0.9999 -0.0088
usemtl None
s off
f 22/43/17 23/44/17 21/45/17
f 24/46/18 25/47/18 23/44/18
f 24/48/19 22/49/19 26/50/19
f 26/51/20 21/52/20 25/47/20
f 21/53/21 23/54/21 25/55/21
f 22/43/17 24/46/17 23/44/17
f 24/46/18 26/51/18 25/47/18
f 26/51/20 22/56/20 21/52/20
o Cylinder.003_Cylinder.004
v 0.502862 0.056291 0.497069
v 0.500315 0.336233 0.494629
v 0.433939 0.055667 0.497387
v 0.431392 0.335609 0.494947
v 0.500296 0.055668 0.428193
v 0.497748 0.335610 0.425753
vt 1.000000 1.000000
vt 0.666667 0.500000
vt 1.000000 0.500000
vt 0.666667 1.000000
vt 0.333333 0.500000
vt 0.457846 0.130000
vt 0.250000 0.490000
vt 0.042154 0.130000
vt 0.333333 1.000000
vt -0.000000 0.500000
vt 0.750000 0.490000
vt 0.957846 0.130000
vt 0.542154 0.130000
vt -0.000000 1.000000
vn 0.0045 0.0088 1.0000
vn -0.7217 -0.0126 -0.6921
vn -0.0091 0.9999 -0.0087
vn 0.9993 0.0088 -0.0373
vn 0.0091 -0.9999 0.0087
usemtl None
s off
f 28/57/22 29/58/22 27/59/22
f 30/60/23 31/61/23 29/58/23
f 30/62/24 28/63/24 32/64/24
f 32/65/25 27/66/25 31/61/25
f 27/67/26 29/68/26 31/69/26
f 28/57/22 30/60/22 29/58/22
f 30/60/23 32/65/23 31/61/23
f 32/65/25 28/70/25 27/66/25
o Plane_Plane.001
v -0.462369 0.198024 -0.483915
v 0.462369 0.198024 -0.483915
v -0.462369 0.208128 -0.483518
v 0.462369 0.208128 -0.483518
vt 1.000000 0.000000
vt 0.000000 1.000000
vt 0.000000 0.000000
vt 1.000000 1.000000
vn 0.0000 -0.0393 0.9992
usemtl None
s off
f 34/71/27 35/72/27 33/73/27
f 34/71/27 36/74/27 35/72/27
o Plane.001_Plane.002
v -0.462369 0.106055 -0.483915
v 0.462369 0.106055 -0.483915
v -0.462369 0.116159 -0.483518
v 0.462369 0.116159 -0.483518
vt 1.000000 0.000000
vt 0.000000 1.000000
vt 0.000000 0.000000
vt 1.000000 1.000000
vn 0.0000 -0.0393 0.9992
usemtl None
s off
f 38/75/28 39/76/28 37/77/28
f 38/75/28 40/78/28 39/76/28
o Plane.002_Plane.003
v -0.462369 0.313179 -0.483915
v 0.462369 0.313179 -0.483915
v -0.462369 0.323283 -0.483518
v 0.462369 0.323283 -0.483518
vt 1.000000 0.000000
vt 0.000000 1.000000
vt 0.000000 0.000000
vt 1.000000 1.000000
vn 0.0000 -0.0393 0.9992
usemtl None
s off
f 42/79/29 43/80/29 41/81/29
f 42/79/29 44/82/29 43/80/29
o Plane.003_Plane.004
v -0.462369 0.313179 0.479593
v 0.462369 0.313179 0.479593
v -0.462369 0.323283 0.479991
v 0.462369 0.323283 0.479991
vt 1.000000 0.000000
vt 0.000000 1.000000
vt 0.000000 0.000000
vt 1.000000 1.000000
vn 0.0000 -0.0393 0.9992
usemtl None
s off
f 46/83/30 47/84/30 45/85/30
f 46/83/30 48/86/30 47/84/30
o Plane.004_Plane.005
v -0.462369 0.106055 0.479593
v 0.462369 0.106055 0.479593
v -0.462369 0.116159 0.479991
v 0.462369 0.116159 0.479991
vt 1.000000 0.000000
vt 0.000000 1.000000
vt 0.000000 0.000000
vt 1.000000 1.000000
vn 0.0000 -0.0393 0.9992
usemtl None
s off
f 50/87/31 51/88/31 49/89/31
f 50/87/31 52/90/31 51/88/31
o Plane.005_Plane.006
v -0.462369 0.198024 0.479593
v 0.462369 0.198024 0.479593
v -0.462369 0.208128 0.479991
v 0.462369 0.208128 0.479991
vt 1.000000 0.000000
vt 0.000000 1.000000
vt 0.000000 0.000000
vt 1.000000 1.000000
vn 0.0000 -0.0393 0.9992
usemtl None
s off
f 54/91/32 55/92/32 53/93/32
f 54/91/32 56/94/32 55/92/32
o Plane.006_Plane.007
v -0.462369 0.313179 -0.483915
v 0.462369 0.313179 -0.483915
v -0.462369 0.323283 -0.483518
v 0.462369 0.323283 -0.483518
vt 1.000000 0.000000
vt 0.000000 1.000000
vt 0.000000 0.000000
vt 1.000000 1.000000
vn 0.0000 -0.0393 0.9992
usemtl None
s off
f 58/95/33 59/96/33 57/97/33
f 58/95/33 60/98/33 59/96/33
o Plane.007_Plane.008
v -0.462369 0.106055 -0.483915
v 0.462369 0.106055 -0.483915
v -0.462369 0.116159 -0.483518
v 0.462369 0.116159 -0.483518
vt 1.000000 0.000000
vt 0.000000 1.000000
vt 0.000000 0.000000
vt 1.000000 1.000000
vn 0.0000 -0.0393 0.9992
usemtl None
s off
f 62/99/34 63/100/34 61/101/34
f 62/99/34 64/102/34 63/100/34
o Plane.008_Plane.009
v -0.462369 0.198024 -0.483915
v 0.462369 0.198024 -0.483915
v -0.462369 0.208128 -0.483518
v 0.462369 0.208128 -0.483518
vt 1.000000 0.000000
vt 0.000000 1.000000
vt 0.000000 0.000000
vt 1.000000 1.000000
vn 0.0000 -0.0393 0.9992
usemtl None
s off
f 66/103/35 67/104/35 65/105/35
f 66/103/35 68/106/35 67/104/35
o Plane.009_Plane.010
v 0.483100 0.313179 -0.475402
v 0.475390 0.313179 0.449304
v 0.482702 0.323283 -0.475405
v 0.474992 0.323283 0.449300
vt 1.000000 0.000000
vt 0.000000 1.000000
vt 0.000000 0.000000
vt 1.000000 1.000000
vn -0.9992 -0.0393 -0.0083
usemtl None
s off
f 70/107/36 71/108/36 69/109/36
f 70/107/36 72/110/36 71/108/36
o Plane.010_Plane.011
v 0.483100 0.106055 -0.475402
v 0.475390 0.106055 0.449304
v 0.482702 0.116159 -0.475405
v 0.474992 0.116159 0.449300
vt 1.000000 0.000000
vt 0.000000 1.000000
vt 0.000000 0.000000
vt 1.000000 1.000000
vn -0.9992 -0.0393 -0.0083
usemtl None
s off
f 74/111/37 75/112/37 73/113/37
f 74/111/37 76/114/37 75/112/37
o Plane.011_Plane.012
v 0.483100 0.198024 -0.475402
v 0.475390 0.198024 0.449304
v 0.482702 0.208128 -0.475405
v 0.474992 0.208128 0.449300
vt 1.000000 0.000000
vt 0.000000 1.000000
vt 0.000000 0.000000
vt 1.000000 1.000000
vn -0.9992 -0.0393 -0.0083
usemtl None
s off
f 78/115/38 79/116/38 77/117/38
f 78/115/38 80/118/38 79/116/38
o Plane.012_Plane.013
v -0.481977 0.198024 -0.475402
v -0.489687 0.198024 0.449304
v -0.482375 0.208128 -0.475405
v -0.490085 0.208128 0.449300
vt 1.000000 0.000000
vt 0.000000 1.000000
vt 0.000000 0.000000
vt 1.000000 1.000000
vn -0.9992 -0.0393 -0.0083
usemtl None
s off
f 82/119/39 83/120/39 81/121/39
f 82/119/39 84/122/39 83/120/39
o Plane.013_Plane.014
v -0.481977 0.106055 -0.475402
v -0.489687 0.106055 0.449304
v -0.482375 0.116159 -0.475405
v -0.490085 0.116159 0.449300
vt 1.000000 0.000000
vt 0.000000 1.000000
vt 0.000000 0.000000
vt 1.000000 1.000000
vn -0.9992 -0.0393 -0.0083
usemtl None
s off
f 86/123/40 87/124/40 85/125/40
f 86/123/40 88/126/40 87/124/40
o Plane.014_Plane.015
v -0.481977 0.313179 -0.475402
v -0.489687 0.313179 0.449304
v -0.482375 0.323283 -0.475405
v -0.490085 0.323283 0.449300
vt 1.000000 0.000000
vt 0.000000 1.000000
vt 0.000000 0.000000
vt 1.000000 1.000000
vn -0.9992 -0.0393 -0.0083
usemtl None
s off
f 90/127/41 91/128/41 89/129/41
f 90/127/41 92/130/41 91/128/41
