# Blender v3.2.1 OBJ File: 'room.blend'
# www.blender.org
mtllib room.mtl
o Plane
v 4.000000 0.000000 -4.000000
v -4.000000 0.000000 -4.000000
v 4.000000 0.000000 4.000000
v -4.000000 0.000000 4.000000
v 4.000000 5.000000 -4.000000
v -4.000000 5.000000 -4.000000
v -4.000000 5.000000 4.000000
v 4.000000 0.000000 -4.000000
v 4.000000 0.158734 -3.841266
v 4.000000 0.000000 4.000000
v -4.000000 0.000000 4.000000
v 4.000000 5.000000 -4.000000
v -4.000000 5.000000 -4.000000
v -4.000000 5.000000 4.000000
v 4.000000 0.000000 -4.000000
v -1.000000 0.000000 1.000000
v 4.000000 0.000000 4.000000
v -4.000000 0.000000 4.000000
v 4.000000 5.000000 -4.000000
v -4.000000 5.000000 -4.000000
v -4.000000 5.000000 4.000000
v -3.841266 0.158734 -3.841266
v 4.000000 0.158734 4.000000
v -3.841266 0.158734 4.000000
v 4.000000 5.000000 -3.841266
v -3.841266 5.000000 -3.841266
v -3.841266 5.000000 4.000000
v 1.000000 0.000000 1.000000
v -1.000000 0.000000 -1.000000
v 1.000000 0.000000 -1.000000
vt 1.000000 1.000000
vt 1.000000 1.000000
vt 1.000000 1.000000
vt 1.000000 1.000000
vt 1.000000 0.000000
vt 1.000000 0.000000
vt 0.000000 1.000000
vt 0.000000 0.000000
vt 0.000000 0.000000
vt 0.000000 1.000000
vt 0.000000 1.000000
vt 0.000000 0.000000
vt 1.000000 0.000000
vt 1.000000 1.000000
vt 1.000000 1.000000
vt 0.000000 0.000000
vt 0.000000 0.000000
vt 0.000000 0.000000
vt 0.000000 0.000000
vt 0.000000 1.000000
vt 0.000000 1.000000
vt 0.000000 0.000000
vt 1.000000 1.000000
vt 1.000000 1.000000
vt 0.000000 0.000000
vt 1.000000 0.000000
vt 1.000000 1.000000
vt 0.000000 1.000000
vt 0.000000 1.000000
vt 1.000000 0.000000
vn 0.0000 0.0000 1.0000
vn 1.0000 0.0000 0.0000
vn 0.0000 1.0000 0.0000
vn 0.0000 -1.0000 0.0000
vn -1.0000 0.0000 0.0000
vn 0.0000 0.0000 -1.0000
g Plane_Plane_Wall
usemtl Wall
s off
f 8/1/1 12/2/1 19/3/1 15/4/1
f 10/5/1 8/1/1 15/4/1 17/6/1
f 13/7/1 14/8/1 21/9/1 20/10/1
f 6/11/1 7/12/1 14/8/1 13/7/1
f 3/13/1 1/14/1 8/1/1 10/5/1
f 1/14/1 5/15/1 12/2/1 8/1/1
f 7/12/1 4/16/1 11/17/1 14/8/1
f 5/15/1 6/11/1 13/7/1 12/2/1
f 4/16/1 3/13/1 10/5/1 11/17/1
f 14/8/1 11/17/1 18/18/1 21/9/1
f 12/2/1 13/7/1 20/10/1 19/3/1
f 11/17/1 10/5/1 17/6/1 18/18/1
f 24/19/2 22/20/2 26/21/2 27/22/2
f 22/20/1 9/23/1 25/24/1 26/21/1
f 16/25/3 28/26/3 30/27/3 29/28/3
g Plane_Plane_Floor
usemtl Floor
f 4/16/4 2/29/4 1/14/4 3/13/4
f 17/6/2 15/4/2 9/23/2 23/30/2
f 24/19/3 23/30/3 9/23/3 22/20/3
f 18/18/1 17/6/1 23/30/1 24/19/1
g Plane_Plane_Concrete
usemtl Concrete
f 4/16/5 7/12/5 6/11/5 2/29/5
f 2/29/6 6/11/6 5/15/6 1/14/6
f 21/9/1 18/18/1 24/19/1 27/22/1
f 15/4/2 19/3/2 25/24/2 9/23/2
f 19/3/3 20/10/3 26/21/3 25/24/3
f 20/10/3 21/9/3 27/22/3 26/21/3
